<svg width="44" height="42" viewBox="0 0 44 42" fill="none" xmlns="http://www.w3.org/2000/svg">
<g clip-path="url(#clip0_141_3332)">
<path d="M36.5532 14.1422L31.5683 18.7359L36.6201 32.3695C36.7067 32.605 36.7227 32.8599 36.6664 33.1041C36.6101 33.3483 36.4838 33.5716 36.3023 33.7476L32.2876 37.6851C32.147 37.8195 31.9787 37.9227 31.7941 37.9878C31.6094 38.0529 31.4126 38.0784 31.217 38.0625C31.0226 38.0411 30.8352 37.9788 30.6677 37.8796C30.5003 37.7805 30.3566 37.647 30.2468 37.4883L23.1207 27.2672L19.9758 30.1055V33.4687C19.9716 33.8199 19.8275 34.1555 19.5743 34.4039L16.2288 37.6851C16.1056 37.8054 15.9594 37.9006 15.7987 37.9653C15.6379 38.0301 15.4658 38.0631 15.292 38.0625L14.9909 38.0297C14.7685 37.9803 14.5626 37.8761 14.3928 37.7268C14.223 37.5774 14.0949 37.3881 14.0207 37.1766L11.8628 30.9258L5.48942 28.8094C5.27377 28.7366 5.08067 28.611 4.92843 28.4444C4.77619 28.2779 4.66987 28.076 4.61957 27.8578C4.57102 27.6402 4.57767 27.4142 4.63892 27.1996C4.70016 26.9851 4.81414 26.7886 4.97085 26.6273L8.31644 23.3461C8.57138 23.1023 8.9139 22.9668 9.26993 22.9687H12.7326L15.8607 19.8844L5.17159 12.9117C5.0122 12.7977 4.87811 12.6531 4.77747 12.4867C4.67682 12.3203 4.61171 12.1356 4.58611 11.9437C4.56745 11.7493 4.5922 11.5531 4.65865 11.3689C4.72509 11.1848 4.83163 11.017 4.97085 10.8773L8.98556 6.93983C9.16576 6.7629 9.3943 6.64088 9.64363 6.58848C9.89295 6.53608 10.1524 6.55554 10.3907 6.64452L24.2916 11.5992L28.7413 6.97265C28.7879 6.90494 28.8443 6.84416 28.9085 6.79218C29.8897 5.85541 31.1996 5.32304 32.5688 5.30457C33.938 5.28611 35.2623 5.78295 36.2694 6.6929C37.2764 7.60285 37.8897 8.85671 37.9829 10.1966C38.0762 11.5364 37.6423 12.8604 36.7707 13.8961C36.7117 13.9887 36.6383 14.0717 36.5532 14.1422Z" fill="#1E4C2F"/>
</g>
<defs>
<clipPath id="clip0_141_3332">
<rect width="42.8235" height="42" fill="white" transform="translate(0.588135)"/>
</clipPath>
</defs>
</svg>
