<svg width="42" height="42" viewBox="0 0 42 42" fill="none" xmlns="http://www.w3.org/2000/svg">
<path d="M29.1375 10.01H12.8625C7.7 10.01 3.5 14.21 3.5 19.3725V29.1375C3.5 34.3 7.7 38.5 12.8625 38.5H29.1375C34.3 38.5 38.5 34.3 38.5 29.1375V19.3725C38.5 14.21 34.3 10.01 29.1375 10.01ZM25.375 21.035C25.375 20.0725 26.1625 19.285 27.125 19.285C28.0875 19.285 28.875 20.0725 28.875 21.035C28.875 21.9975 28.0875 22.8025 27.125 22.8025C26.1625 22.8025 25.375 22.0325 25.375 21.07V21.035ZM17.7275 28.1225C17.465 28.385 17.1325 28.5075 16.8 28.5075C16.4675 28.5075 16.135 28.385 15.8725 28.1225L14.07 26.32L12.3375 28.0525C12.075 28.315 11.7425 28.4375 11.41 28.4375C11.0775 28.4375 10.745 28.315 10.4825 28.0525C9.975 27.545 9.975 26.705 10.4825 26.1975L12.215 24.465L10.535 22.785C10.0275 22.2775 10.0275 21.4375 10.535 20.93C11.0425 20.4225 11.8825 20.4225 12.39 20.93L14.07 22.61L15.8025 20.8775C16.31 20.37 17.15 20.37 17.6575 20.8775C18.165 21.385 18.165 22.225 17.6575 22.7325L15.925 24.465L17.7275 26.2675C18.235 26.775 18.235 27.615 17.7275 28.1225ZM23.695 26.25C22.7325 26.25 21.9275 25.4625 21.9275 24.5C21.9275 23.5375 22.6975 22.75 23.66 22.75H23.695C24.6575 22.75 25.445 23.5375 25.445 24.5C25.445 25.4625 24.675 26.25 23.695 26.25ZM27.125 29.6975C26.1625 29.6975 25.375 28.9275 25.375 27.965V27.93C25.375 26.9675 26.1625 26.18 27.125 26.18C28.0875 26.18 28.875 26.9675 28.875 27.93C28.875 28.8925 28.105 29.6975 27.125 29.6975ZM30.59 26.25C29.6275 26.25 28.8225 25.4625 28.8225 24.5C28.8225 23.5375 29.5925 22.75 30.555 22.75H30.59C31.5525 22.75 32.34 23.5375 32.34 24.5C32.34 25.4625 31.57 26.25 30.59 26.25Z" fill="#1E4C2F"/>
<path d="M23.8699 4.7425L23.8524 6.3875C23.8349 7.9275 22.5574 9.205 20.9999 9.205C20.7374 9.205 20.5799 9.38 20.5799 9.6075C20.5799 9.835 20.7549 10.01 20.9824 10.01H18.1649C18.1474 9.8875 18.1299 9.7475 18.1299 9.6075C18.1299 8.0325 19.4074 6.755 20.9649 6.755C21.2274 6.755 21.4024 6.58 21.4024 6.3525L21.4199 4.7075C21.4374 4.0425 21.9799 3.5 22.6449 3.5H22.6624C23.3449 3.5 23.8699 4.06 23.8699 4.7425Z" fill="#1E4C2F"/>
</svg>
