<svg width="42" height="42" viewBox="0 0 42 42" fill="none" xmlns="http://www.w3.org/2000/svg">
<g clip-path="url(#clip0_141_3350)">
<path d="M35.4375 5.25V31.5C35.4375 31.8481 35.2992 32.1819 35.0531 32.4281C34.8069 32.6742 34.4731 32.8125 34.125 32.8125H11.8125C11.1163 32.8125 10.4486 33.0891 9.95634 33.5813C9.46406 34.0736 9.1875 34.7413 9.1875 35.4375H31.5C31.8481 35.4375 32.1819 35.5758 32.4281 35.8219C32.6742 36.0681 32.8125 36.4019 32.8125 36.75C32.8125 37.0981 32.6742 37.4319 32.4281 37.6781C32.1819 37.9242 31.8481 38.0625 31.5 38.0625H7.875C7.5269 38.0625 7.19306 37.9242 6.94692 37.6781C6.70078 37.4319 6.5625 37.0981 6.5625 36.75V9.1875C6.56683 7.79644 7.12134 6.4636 8.10497 5.47997C9.0886 4.49634 10.4214 3.94183 11.8125 3.9375H34.125C34.4731 3.9375 34.8069 4.07578 35.0531 4.32192C35.2992 4.56806 35.4375 4.9019 35.4375 5.25Z" fill="#1E4C2F"/>
</g>
<defs>
<clipPath id="clip0_141_3350">
<rect width="42" height="42" fill="white"/>
</clipPath>
</defs>
</svg>
