<svg width="42" height="42" viewBox="0 0 42 42" fill="none" xmlns="http://www.w3.org/2000/svg">
<path d="M4.81243 32.6375C4.09493 32.6375 3.49993 32.0425 3.49993 31.325V21.35C3.41243 16.6075 5.17993 12.1275 8.46993 8.76752C11.7599 5.42502 16.1699 3.58752 20.9124 3.58752C30.6074 3.58752 38.4999 11.48 38.4999 21.175V31.15C38.4999 31.8675 37.9049 32.4625 37.1874 32.4625C36.4699 32.4625 35.8749 31.8675 35.8749 31.15V21.175C35.8749 12.9325 29.1724 6.21252 20.9124 6.21252C16.8699 6.21252 13.1249 7.77002 10.3424 10.605C7.54243 13.4575 6.05493 17.255 6.12493 21.315V31.3075C6.12493 32.0425 5.54743 32.6375 4.81243 32.6375Z" fill="#1E4C2F"/>
<path d="M10.395 21.7875H10.1675C6.4925 21.7875 3.5 24.78 3.5 28.455V31.745C3.5 35.42 6.4925 38.4125 10.1675 38.4125H10.395C14.07 38.4125 17.0625 35.42 17.0625 31.745V28.455C17.0625 24.78 14.07 21.7875 10.395 21.7875Z" fill="#1E4C2F"/>
<path d="M31.8325 21.7875H31.605C27.93 21.7875 24.9375 24.78 24.9375 28.455V31.745C24.9375 35.42 27.93 38.4125 31.605 38.4125H31.8325C35.5075 38.4125 38.5 35.42 38.5 31.745V28.455C38.5 24.78 35.5075 21.7875 31.8325 21.7875Z" fill="#1E4C2F"/>
</svg>
