<svg width="42" height="42" viewBox="0 0 42 42" fill="none" xmlns="http://www.w3.org/2000/svg">
<g clip-path="url(#clip0_141_3325)">
<path d="M40.2609 10.057L32.1562 5.43047C31.9571 5.31365 31.7307 5.25141 31.4999 5.25H26.2499C25.9018 5.25 25.568 5.38828 25.3219 5.63442C25.0757 5.88056 24.9374 6.2144 24.9374 6.5625C24.9374 7.60679 24.5226 8.60831 23.7842 9.34673C23.0457 10.0852 22.0442 10.5 20.9999 10.5C19.9556 10.5 18.9541 10.0852 18.2157 9.34673C17.4773 8.60831 17.0624 7.60679 17.0624 6.5625C17.0624 6.2144 16.9242 5.88056 16.678 5.63442C16.4319 5.38828 16.098 5.25 15.7499 5.25H10.4999C10.2691 5.25141 10.0428 5.31365 9.84368 5.43047L1.739 10.057C1.15462 10.3862 0.719483 10.9278 0.523956 11.5694C0.328428 12.211 0.387533 12.9032 0.688997 13.5023L3.70775 19.5562C3.92664 19.9906 4.26192 20.3557 4.67619 20.6106C5.09046 20.8655 5.56742 21.0004 6.05384 21H9.18743V34.125C9.18743 34.8212 9.464 35.4889 9.95628 35.9812C10.4486 36.4734 11.1162 36.75 11.8124 36.75H30.1874C30.8836 36.75 31.5513 36.4734 32.0436 35.9812C32.5359 35.4889 32.8124 34.8212 32.8124 34.125V21H35.946C36.4325 21.0004 36.9094 20.8655 37.3237 20.6106C37.7379 20.3557 38.0732 19.9906 38.2921 19.5562L41.3109 13.5023C41.6123 12.9032 41.6714 12.211 41.4759 11.5694C41.2804 10.9278 40.8452 10.3862 40.2609 10.057ZM6.05384 18.375L3.03509 12.3375L9.18743 8.82656V18.375H6.05384ZM35.946 18.375H32.8124V8.82656L38.9648 12.3375L35.946 18.375Z" fill="#1E4C2F"/>
</g>
<defs>
<clipPath id="clip0_141_3325">
<rect width="42" height="42" fill="white"/>
</clipPath>
</defs>
</svg>
