<svg width="20" height="20" viewBox="0 0 20 20" fill="none" xmlns="http://www.w3.org/2000/svg">
<g clip-path="url(#clip0_177_6674)">
<path d="M6.2334 4.70832L8.81673 2.70832C9.15006 2.37499 9.90006 2.20832 10.4001 2.20832H13.5667C14.5667 2.20832 15.6501 2.95832 15.9001 3.95832L17.9001 10.0417C18.3167 11.2083 17.5667 12.2083 16.3167 12.2083H12.9834C12.4834 12.2083 12.0667 12.625 12.1501 13.2083L12.5667 15.875C12.7334 16.625 12.2334 17.4583 11.4834 17.7083C10.8167 17.9583 9.9834 17.625 9.65006 17.125L6.2334 12.0417" stroke="#0B0F0E" stroke-width="1.5" stroke-miterlimit="10"/>
<path d="M1.9834 4.70831V12.875C1.9834 14.0416 2.4834 14.4583 3.65007 14.4583H4.4834C5.65006 14.4583 6.15007 14.0416 6.15007 12.875V4.70831C6.15007 3.54165 5.65006 3.12498 4.4834 3.12498H3.65007C2.4834 3.12498 1.9834 3.54165 1.9834 4.70831Z" stroke="#0B0F0E" stroke-width="1.5" stroke-linecap="round" stroke-linejoin="round"/>
</g>
<defs>
<clipPath id="clip0_177_6674">
<rect width="20" height="20" fill="white" transform="matrix(1 0 0 -1 0 20)"/>
</clipPath>
</defs>
</svg>
