<svg width="28" height="28" viewBox="0 0 28 28" fill="none" xmlns="http://www.w3.org/2000/svg">
<path d="M11.5416 14.0851C11.5416 12.6777 12.6829 11.5365 14.0911 11.5365C15.4993 11.5365 16.6412 12.6777 16.6412 14.0851C16.6412 15.4924 15.4993 16.6336 14.0911 16.6336C12.6829 16.6336 11.5416 15.4924 11.5416 14.0851ZM10.1631 14.0851C10.1631 16.2532 11.9216 18.0107 14.0911 18.0107C16.2606 18.0107 18.0191 16.2532 18.0191 14.0851C18.0191 11.9169 16.2606 10.1594 14.0911 10.1594C11.9216 10.1594 10.1631 11.9169 10.1631 14.0851ZM17.2567 10.0037C17.2566 10.1852 17.3104 10.3626 17.4112 10.5135C17.512 10.6644 17.6553 10.782 17.823 10.8515C17.9907 10.921 18.1753 10.9393 18.3534 10.9039C18.5314 10.8686 18.695 10.7813 18.8235 10.6531C18.9519 10.5248 19.0394 10.3614 19.0749 10.1834C19.1104 10.0055 19.0923 9.82101 19.0229 9.65335C18.9534 9.48569 18.8358 9.34236 18.6849 9.24149C18.534 9.14063 18.3566 9.08675 18.175 9.08668H18.1746C17.9313 9.08679 17.6979 9.18343 17.5258 9.35538C17.3537 9.52732 17.2569 9.76051 17.2567 10.0037ZM11.0006 20.308C10.2548 20.274 9.84944 20.1499 9.58005 20.045C9.2229 19.906 8.96807 19.7405 8.70015 19.4731C8.43222 19.2057 8.26638 18.9513 8.12795 18.5944C8.02294 18.3253 7.8987 17.92 7.8648 17.1747C7.82771 16.3688 7.82031 16.1267 7.82031 14.0851C7.82031 12.0435 7.82833 11.8021 7.8648 10.9956C7.89877 10.2502 8.02391 9.84575 8.12795 9.57584C8.26699 9.21891 8.43259 8.96423 8.70015 8.69647C8.9677 8.42871 9.22229 8.26296 9.58005 8.12462C9.84932 8.01967 10.2548 7.89551 11.0006 7.86163C11.807 7.82456 12.0492 7.81716 14.0911 7.81716C16.133 7.81716 16.3755 7.82517 17.1825 7.86163C17.9283 7.89557 18.333 8.02064 18.6031 8.12462C18.9602 8.26296 19.2151 8.42908 19.483 8.69647C19.7509 8.96387 19.9161 9.21891 20.0552 9.57584C20.1602 9.84495 20.2844 10.2502 20.3183 10.9956C20.3554 11.8021 20.3628 12.0435 20.3628 14.0851C20.3628 16.1267 20.3554 16.3681 20.3183 17.1747C20.2844 17.92 20.1595 18.3252 20.0552 18.5944C19.9161 18.9513 19.7505 19.206 19.483 19.4731C19.2154 19.7403 18.9602 19.906 18.6031 20.045C18.3338 20.1499 17.9283 20.2741 17.1825 20.308C16.3762 20.345 16.1339 20.3524 14.0911 20.3524C12.0483 20.3524 11.8067 20.345 11.0006 20.308ZM10.9373 6.48624C10.1229 6.5233 9.56646 6.65235 9.08049 6.84134C8.5772 7.0365 8.15114 7.29833 7.72539 7.72316C7.29964 8.14798 7.03833 8.57446 6.84305 9.07744C6.65395 9.56343 6.52482 10.1193 6.48773 10.9331C6.45004 11.7483 6.44141 12.0089 6.44141 14.0851C6.44141 16.1612 6.45004 16.4218 6.48773 17.237C6.52482 18.0509 6.65395 18.6067 6.84305 19.0927C7.03833 19.5953 7.2997 20.0223 7.72539 20.4469C8.15108 20.8716 8.5772 21.133 9.08049 21.3288C9.56738 21.5177 10.1229 21.6468 10.9373 21.6839C11.7534 21.7209 12.0137 21.7302 14.0911 21.7302C16.1685 21.7302 16.4293 21.7215 17.2449 21.6839C18.0593 21.6468 18.6154 21.5177 19.1017 21.3288C19.6047 21.133 20.0311 20.8718 20.4568 20.4469C20.8826 20.0221 21.1433 19.5953 21.3392 19.0927C21.5283 18.6067 21.658 18.0508 21.6945 17.237C21.7316 16.4212 21.7402 16.1612 21.7402 14.0851C21.7402 12.0089 21.7316 11.7483 21.6945 10.9331C21.6574 10.1192 21.5283 9.56312 21.3392 9.07744C21.1433 8.57476 20.8819 8.14865 20.4568 7.72316C20.0317 7.29766 19.6047 7.0365 19.1023 6.84134C18.6154 6.65235 18.0593 6.52269 17.2455 6.48624C16.4299 6.44918 16.1691 6.43994 14.0917 6.43994C12.0143 6.43994 11.7534 6.44857 10.9373 6.48624Z" fill="url(#paint0_linear_164_8031)"/>
<defs>
<linearGradient id="paint0_linear_164_8031" x1="21.4461" y1="21.7302" x2="6.15593" y2="6.43138" gradientUnits="userSpaceOnUse">
<stop stop-color="#FBE18A"/>
<stop offset="0.21" stop-color="#FCBB45"/>
<stop offset="0.38" stop-color="#F75274"/>
<stop offset="0.52" stop-color="#D53692"/>
<stop offset="0.74" stop-color="#8F39CE"/>
<stop offset="1" stop-color="#5B4FE9"/>
</linearGradient>
</defs>
</svg>
