<svg width="20" height="20" viewBox="0 0 20 20" fill="none" xmlns="http://www.w3.org/2000/svg">
<path d="M11.4416 2.92513L12.9083 5.85847C13.1083 6.2668 13.6416 6.65847 14.0916 6.73347L16.7499 7.17513C18.4499 7.45847 18.8499 8.6918 17.6249 9.90847L15.5583 11.9751C15.2083 12.3251 15.0166 13.0001 15.1249 13.4835L15.7166 16.0418C16.1833 18.0668 15.1083 18.8501 13.3166 17.7918L10.8249 16.3168C10.3749 16.0501 9.63326 16.0501 9.17492 16.3168L6.68326 17.7918C4.89992 18.8501 3.81659 18.0585 4.28326 16.0418L4.87492 13.4835C4.98326 13.0001 4.79159 12.3251 4.44159 11.9751L2.37492 9.90847C1.15826 8.6918 1.54992 7.45847 3.24992 7.17513L5.90826 6.73347C6.34992 6.65847 6.88326 6.2668 7.08326 5.85847L8.54992 2.92513C9.34992 1.33347 10.6499 1.33347 11.4416 2.92513Z" fill="#FFA439"/>
</svg>
