<svg width="28" height="28" viewBox="0 0 28 28" fill="none" xmlns="http://www.w3.org/2000/svg">
<path d="M20.5867 9.97604C20.1634 10.1582 19.7184 10.2851 19.2626 10.3535C19.4757 10.317 19.7892 9.93343 19.914 9.77819C20.1036 9.54403 20.2481 9.27672 20.3401 8.98983C20.3401 8.96852 20.3614 8.93808 20.3401 8.92286C20.3294 8.917 20.3174 8.91393 20.3051 8.91393C20.2929 8.91393 20.2809 8.917 20.2701 8.92286C19.7753 9.19085 19.2486 9.39539 18.7025 9.53164C18.6835 9.53745 18.6633 9.53797 18.6439 9.53315C18.6246 9.52832 18.607 9.51833 18.593 9.50424C18.5505 9.45363 18.5047 9.40584 18.456 9.36118C18.2333 9.16164 17.9806 8.99832 17.7072 8.87721C17.3381 8.7258 16.9395 8.66023 16.5414 8.68544C16.1551 8.70984 15.778 8.81345 15.4334 8.98983C15.0942 9.17579 14.796 9.42841 14.5568 9.73253C14.3052 10.0455 14.1236 10.4088 14.0241 10.7979C13.9421 11.168 13.9328 11.5505 13.9967 11.9241C13.9967 11.988 13.9967 11.9972 13.9419 11.988C11.7717 11.6684 9.991 10.8983 8.53603 9.24551C8.47211 9.17246 8.43863 9.17246 8.38688 9.24551C7.75376 10.2074 8.06119 11.7293 8.85259 12.4811C8.95913 12.5816 9.06871 12.679 9.18437 12.7703C8.82152 12.7445 8.46753 12.6462 8.14337 12.4811C8.0825 12.4416 8.04901 12.4629 8.04597 12.5359C8.03734 12.6372 8.03734 12.739 8.04597 12.8403C8.10948 13.3257 8.30076 13.7855 8.60026 14.1727C8.89975 14.5599 9.29671 14.8606 9.75053 15.0441C9.86117 15.0915 9.97644 15.1272 10.0945 15.1506C9.75858 15.2167 9.41406 15.227 9.0748 15.1811C9.00174 15.1658 8.97435 15.2054 9.00174 15.2754C9.44919 16.493 10.4202 16.8643 11.1324 17.0713C11.2299 17.0865 11.3273 17.0865 11.4368 17.1109C11.4368 17.1109 11.4368 17.1109 11.4186 17.1291C11.2085 17.5127 10.3593 17.7714 9.96969 17.9053C9.25855 18.1608 8.50033 18.2584 7.74767 18.1914C7.62896 18.1732 7.60157 18.1762 7.57113 18.1914C7.54069 18.2067 7.57113 18.2401 7.60461 18.2706C7.7568 18.371 7.909 18.4593 8.06728 18.5445C8.53848 18.8015 9.03664 19.0057 9.55268 19.1533C12.2252 19.8899 15.2325 19.3481 17.2384 17.3544C18.8152 15.7898 19.3691 13.6317 19.3691 11.4706C19.3691 11.3884 19.4696 11.3397 19.5274 11.2971C19.9263 10.9863 20.278 10.6192 20.5715 10.2074C20.6223 10.146 20.6484 10.0678 20.6445 9.98822C20.6445 9.94256 20.6445 9.95169 20.5867 9.97604Z" fill="#33CCFF"/>
</svg>
