<svg width="28" height="28" viewBox="0 0 28 28" fill="none" xmlns="http://www.w3.org/2000/svg">
<path d="M7 21L8.00447 17.2685C7.19439 15.8148 6.93702 14.1186 7.27959 12.491C7.62215 10.8633 8.54168 9.41353 9.86942 8.40757C11.1972 7.40161 12.8441 6.90698 14.5079 7.01445C16.1718 7.12192 17.741 7.82427 18.9276 8.99263C20.1142 10.161 20.8386 11.717 20.9678 13.3751C21.0971 15.0332 20.6226 16.6822 19.6313 18.0194C18.64 19.3567 17.1986 20.2926 15.5713 20.6553C13.9441 21.018 12.2404 20.7833 10.7727 19.9941L7 21ZM10.9546 18.5978L11.1879 18.7358C12.251 19.3643 13.4927 19.6244 14.7194 19.4756C15.9461 19.3267 17.0891 18.7772 17.9701 17.9128C18.851 17.0484 19.4206 15.9176 19.59 14.6966C19.7594 13.4756 19.5191 12.233 18.9065 11.1624C18.294 10.0918 17.3436 9.25345 16.2035 8.77791C15.0633 8.30236 13.7975 8.21636 12.6033 8.53331C11.409 8.85026 10.3535 9.55235 9.60104 10.5302C8.8486 11.508 8.44159 12.7066 8.44343 13.9393C8.44243 14.9613 8.72581 15.9636 9.26203 16.8346L9.40835 17.0752L8.8468 19.1579L10.9546 18.5978Z" fill="#00D95F"/>
<path fill-rule="evenodd" clip-rule="evenodd" d="M16.6175 14.8974C16.4807 14.7874 16.3205 14.7099 16.1492 14.671C15.9779 14.632 15.7999 14.6326 15.6288 14.6726C15.3718 14.7791 15.2057 15.1814 15.0396 15.3826C15.0046 15.4308 14.9531 15.4647 14.8949 15.4777C14.8366 15.4908 14.7756 15.4822 14.7232 15.4536C13.7822 15.086 12.9933 14.4118 12.4849 13.5405C12.4416 13.4861 12.421 13.4171 12.4277 13.348C12.4343 13.2788 12.4676 13.2149 12.5205 13.1697C12.7058 12.9868 12.8418 12.7602 12.916 12.511C12.9324 12.2361 12.8693 11.9622 12.7341 11.7221C12.6295 11.3854 12.4305 11.0857 12.1606 10.8582C12.0214 10.7958 11.8671 10.7748 11.7162 10.7979C11.5654 10.821 11.4244 10.8872 11.3104 10.9884C11.1125 11.1587 10.9553 11.3712 10.8506 11.6101C10.7459 11.8491 10.6963 12.1084 10.7053 12.369C10.706 12.5153 10.7246 12.6611 10.7607 12.8029C10.8525 13.1437 10.9938 13.4692 11.1799 13.7693C11.3142 13.9992 11.4607 14.2217 11.6189 14.4359C12.1328 15.1396 12.7788 15.7371 13.521 16.1952C13.8935 16.428 14.2916 16.6172 14.7074 16.7593C15.1394 16.9546 15.6163 17.0295 16.0876 16.9762C16.3561 16.9357 16.6105 16.8299 16.8284 16.6683C17.0463 16.5066 17.221 16.2941 17.3372 16.0492C17.4055 15.9013 17.4262 15.736 17.3965 15.5759C17.3253 15.2485 16.8864 15.0552 16.6175 14.8974Z" fill="#00D95F"/>
</svg>
